HIERARCHY
ROOT Hips
{
	OFFSET 0.000000 0.000000 0.000000
	CHANNELS 6 Xposition Yposition Zposition Zrotation Yrotation Xrotation 
	JOINT LHipJoint
	{
		OFFSET 0.000000 0.000000 0.000000
		CHANNELS 3 Zrotation Yrotation Xrotation
		JOINT LeftUpLeg
		{
			OFFSET 1.363060 -1.794630 0.839290
			CHANNELS 3 Zrotation Yrotation Xrotation
			JOINT LeftLeg
			{
				OFFSET 2.448110 -6.726130 0.000000
				CHANNELS 3 Zrotation Yrotation Xrotation
				JOINT LeftFoot
				{
					OFFSET 2.562200 -7.039590 0.000000
					CHANNELS 3 Zrotation Yrotation Xrotation
					JOINT LeftToeBase
					{
						OFFSET 0.157640 -0.433110 2.322550
						CHANNELS 3 Zrotation Yrotation Xrotation
						End Site
						{
							OFFSET 0.000000 0.000000 0.000000
						}
					}
				}
			}
		}
	}
	JOINT RHipJoint
	{
		OFFSET 0.000000 0.000000 0.000000
		CHANNELS 3 Zrotation Yrotation Xrotation
		JOINT RightUpLeg
		{
			OFFSET -1.305520 -1.794630 0.839290
			CHANNELS 3 Zrotation Yrotation Xrotation
			JOINT RightLeg
			{
				OFFSET -2.542530 -6.985550 0.000000
				CHANNELS 3 Zrotation Yrotation Xrotation
				JOINT RightFoot
				{
					OFFSET -2.568260 -7.056230 0.000000
					CHANNELS 3 Zrotation Yrotation Xrotation
					JOINT RightToeBase
					{
						OFFSET -0.164730 -0.452590 2.363150
						CHANNELS 3 Zrotation Yrotation Xrotation
						End Site
						{
							OFFSET 0.000000 0.000000 0.000000
						}
					}
				}
			}
		}
	}
	JOINT LowerBack
	{
		OFFSET 0.000000 0.000000 0.000000
		CHANNELS 3 Zrotation Yrotation Xrotation
		JOINT Spine
		{
			OFFSET 0.028270 2.035590 -0.193380
			CHANNELS 3 Zrotation Yrotation Xrotation
			JOINT Spine1
			{
				OFFSET 0.056720 2.048850 -0.042750
				CHANNELS 3 Zrotation Yrotation Xrotation
				JOINT Neck
				{
					OFFSET 0.000000 0.000000 0.000000
					CHANNELS 3 Zrotation Yrotation Xrotation
					JOINT Neck1
					{
						OFFSET -0.054170 1.746240 0.172020
						CHANNELS 3 Zrotation Yrotation Xrotation
						JOINT Head
						{
							OFFSET 0.104070 1.761360 -0.123970
							CHANNELS 3 Zrotation Yrotation Xrotation
							End Site
							{
								OFFSET 0.000000 0.000000 0.000000
							}
						}
					}
				}
				JOINT LeftShoulder
				{
					OFFSET 0.000000 0.000000 0.000000
					CHANNELS 3 Zrotation Yrotation Xrotation
					JOINT LeftArm
					{
						OFFSET 3.362410 1.200890 -0.311210
						CHANNELS 3 Zrotation Yrotation Xrotation
						JOINT LeftForeArm
						{
							OFFSET 4.983000 -0.000000 -0.000000
							CHANNELS 3 Zrotation Yrotation Xrotation
							JOINT LeftHand
							{
								OFFSET 3.483560 -0.000000 -0.000000
								CHANNELS 3 Zrotation Yrotation Xrotation
								JOINT LeftFingerBase
								{
									OFFSET 0.000000 0.000000 0.000000
									CHANNELS 3 Zrotation Yrotation Xrotation
									JOINT LeftHandIndex1
									{
										OFFSET 0.715260 -0.000000 -0.000000
										CHANNELS 3 Zrotation Yrotation Xrotation
										End Site
										{
											OFFSET 0.000000 0.000000 0.000000
										}
									}
								}
								JOINT LThumb
								{
									OFFSET 0.000000 0.000000 0.000000
									CHANNELS 3 Zrotation Yrotation Xrotation
									End Site
									{
										OFFSET 0.000000 0.000000 0.000000
									}
								}
							}
						}
					}
				}
				JOINT RightShoulder
				{
					OFFSET 0.000000 0.000000 0.000000
					CHANNELS 3 Zrotation Yrotation Xrotation
					JOINT RightArm
					{
						OFFSET -3.136600 1.374050 -0.404650
						CHANNELS 3 Zrotation Yrotation Xrotation
						JOINT RightForeArm
						{
							OFFSET -5.241900 -0.000000 -0.000000
							CHANNELS 3 Zrotation Yrotation Xrotation
							JOINT RightHand
							{
								OFFSET -3.444170 -0.000000 -0.000000
								CHANNELS 3 Zrotation Yrotation Xrotation
								JOINT RightFingerBase
								{
									OFFSET 0.000000 0.000000 0.000000
									CHANNELS 3 Zrotation Yrotation Xrotation
									JOINT RightHandIndex1
									{
										OFFSET -0.622530 -0.000000 -0.000000
										CHANNELS 3 Zrotation Yrotation Xrotation
										End Site
										{
											OFFSET 0.000000 0.000000 0.000000
										}
									}
								}
								JOINT RThumb
								{
									OFFSET 0.000000 0.000000 0.000000
									CHANNELS 3 Zrotation Yrotation Xrotation
									End Site
									{
										OFFSET 0.000000 0.000000 0.000000
									}
								}
							}
						}
					}
				}
			}
		}
	}
}
MOTION
Frames: 10
Frame Time: 0.008333
9.483065 17.492870 7.518683 -175.236502 18.461375 -160.132266 4.839222 2.594637 0.079302 -16.286055 -13.005172 -33.079574 2.705500 11.861469 32.761319 0.684162 4.549356 -17.765059 9.315800 -17.006700 -57.175900 -9.095618 -4.455300 -2.198557 20.149186 11.304009 -4.254076 -19.579576 -17.803484 91.945087 -19.131447 36.141556 85.991636 -1.471900 -7.666500 21.705500 -3.028590 7.359314 -3.643485 -0.735109 9.333653 -5.192616 1.996305 4.657075 2.232344 -7.887673 -1.876415 -11.496288 7.531701 -5.046854 22.508040 2.448600 -2.731900 9.206700 0.625757 -4.211625 1.507299 -75.698486 14.967824 25.262849 10.351720 -20.609695 -2.860250 -0.152775 1.304552 16.477485 32.956498 -18.299668 -12.521500 -7.125000 0.000000 0.000000 3.264100 6.872600 -2.854800 0.206227 4.348266 1.637776 70.112342 6.537772 31.607013 -24.162673 41.154312 -9.790215 1.611271 -1.250737 2.889571 -16.202900 -42.713338 11.985100 7.125000 0.000000 0.000000 27.985600 -70.654700 -17.575000 
9.425090 17.502086 7.335329 -175.555918 17.693251 -160.123117 4.848342 2.568649 0.038470 -17.357764 -13.787839 -32.078118 2.655669 11.728141 32.465395 0.771930 4.017046 -18.491240 9.013900 -16.816700 -56.138300 -9.168636 -4.475812 -2.271390 20.081020 11.023577 -4.120558 -17.977853 -18.578528 87.320465 -47.349450 50.274484 121.941443 -1.701500 -8.214600 23.367800 -2.797464 7.256658 -3.932254 -0.631862 9.170933 -5.069368 2.257810 4.553539 2.744298 -7.802776 -2.039817 -11.680011 7.064225 -5.270565 23.015708 2.229300 -2.871700 9.414600 0.623702 -4.195987 1.518408 -75.128261 15.550224 26.861362 11.167234 -21.698225 -3.128004 -0.170264 1.296166 16.193223 33.209805 -18.194242 -12.572700 -7.125000 0.000000 0.000000 3.447000 6.945800 -3.010500 0.293358 4.347009 1.661267 69.482702 5.521387 30.414448 -23.557968 40.643865 -9.573242 1.577364 -1.216652 3.585062 -16.283873 -42.639570 12.020800 7.125000 0.000000 0.000000 27.893700 -70.661100 -17.518300 
9.374724 17.505515 7.163120 -176.020937 16.993218 -160.256075 4.861933 2.459670 -0.110870 -18.610476 -13.977745 -31.111949 2.633855 11.618407 32.277688 0.834314 3.526598 -18.906680 8.690600 -16.604400 -55.013800 -9.323021 -4.203663 -2.033687 20.136340 12.210213 -4.049709 -16.125204 -18.371737 80.881746 -55.506055 51.672799 164.000979 -1.698100 -8.206600 23.343500 -2.974328 7.044232 -4.113214 -0.445402 8.915120 -4.969079 2.948357 4.398357 3.029395 -7.838684 -2.144355 -11.867281 6.666394 -5.420126 23.591873 2.046800 -2.986100 9.665000 0.641573 -4.211767 1.521277 -74.656281 16.499439 28.730014 12.339023 -23.223222 -3.536836 -0.207423 1.279590 14.518507 33.339171 -18.158161 -12.603100 -7.125000 0.000000 0.000000 3.533600 6.969600 -3.084700 0.415508 4.375058 1.686786 68.768669 4.191816 28.679613 -22.989689 40.024995 -9.260025 1.565039 -1.200630 3.609436 -16.089343 -40.125251 11.296000 7.125000 0.000000 0.000000 24.324500 -68.492300 -14.022200 
9.334753 17.507765 7.007950 -176.468464 16.288656 -160.582988 4.860999 2.390032 -0.232448 -19.792134 -13.499642 -30.570608 2.688339 11.634848 32.454787 0.863764 2.904900 -18.904628 8.367800 -16.383200 -53.876900 -9.453942 -3.965456 -1.802630 20.283782 13.718505 -4.447035 -14.306045 -17.862251 75.674530 -44.183026 37.997359 -161.387711 -1.534700 -7.821000 22.171800 -3.341000 6.761024 -4.015605 -0.165581 8.586234 -4.883290 3.976896 4.232494 3.095711 -8.154663 -2.233998 -11.864909 6.413367 -5.543222 24.031842 1.968800 -3.109600 9.837000 0.667093 -4.250141 1.523440 -74.222606 17.373094 30.429794 13.582727 -24.795631 -4.000354 -0.236702 1.260417 12.448286 33.193994 -18.287348 -12.601400 -7.125000 0.000000 0.000000 3.410700 6.865900 -2.983900 0.570796 4.435190 1.719539 68.044622 2.483243 26.244943 -22.445458 39.553010 -9.248063 1.558061 -1.051521 3.132886 -13.980837 -43.402903 10.603300 7.125000 0.000000 0.000000 32.375300 -70.686100 -20.526900 
9.294460 17.509265 6.861674 -176.852534 15.213585 -160.964580 4.868458 2.384515 -0.289510 -21.029907 -12.786131 -30.292361 2.761172 11.682723 32.709894 0.868378 2.188754 -18.628725 8.109600 -16.199300 -52.956700 -9.536683 -3.904781 -1.697077 20.517236 14.960565 -5.740762 -13.185428 -17.689854 72.300165 -43.541103 36.864577 -159.715346 -0.944100 -6.188500 17.332200 -3.289254 6.388856 -3.725734 0.073192 8.095710 -4.827267 4.548816 4.005863 3.116823 -8.376277 -2.330305 -11.713466 6.254583 -5.704337 24.254724 1.923500 -3.238200 9.890100 0.679300 -4.290366 1.533554 -73.295577 18.117660 32.042421 14.982390 -26.475069 -4.536290 -0.246233 1.220868 10.437986 32.056737 -18.104085 -11.941600 -7.125000 0.000000 0.000000 2.699800 7.371500 -2.333800 0.669805 4.501345 1.749604 67.804374 0.437515 23.348830 -21.936527 39.076613 -9.165569 1.530415 -0.985277 2.033935 -13.557383 -44.169603 10.430700 7.125000 0.000000 0.000000 34.478100 -71.163500 -22.307500 
9.252238 17.511087 6.720113 -177.433407 13.811947 -161.418971 4.874232 2.384921 -0.342489 -22.661236 -12.110480 -29.794933 2.785620 11.634960 32.699028 0.874515 1.381245 -18.365227 7.850800 -16.008400 -52.023300 -9.587736 -3.849642 -1.597773 20.573505 15.860797 -6.939283 -12.401792 -17.563448 69.976534 -42.944998 36.939966 -157.136519 -0.522200 -4.631400 12.860200 -3.155729 5.819024 -3.433393 0.288073 7.347791 -4.761644 4.875387 3.624735 3.293694 -8.152646 -2.377814 -12.054154 5.690306 -5.707184 24.717650 1.639900 -3.270700 10.117800 0.695488 -4.294070 1.541268 -72.112313 18.636664 33.263221 16.390403 -28.135871 -5.168785 -0.273670 1.217692 8.753403 32.466188 -18.877833 -12.576900 -7.125000 0.000000 0.000000 2.834000 6.393300 -2.503900 0.743167 4.584845 1.779756 67.855223 -1.660191 20.304802 -21.286590 38.431194 -8.920286 1.481957 -0.997621 0.752339 -15.340396 -42.399655 11.248100 7.125000 0.000000 0.000000 29.142500 -70.274100 -18.100400 
9.205944 17.513552 6.581982 -178.111717 12.308983 -161.925090 4.876987 2.383658 -0.400338 -24.475854 -11.647344 -28.833368 2.749200 11.462434 32.344007 0.904948 0.320414 -18.300449 7.225600 -15.518900 -49.722400 -9.649983 -3.797200 -1.482739 20.638115 17.055117 -8.324274 -11.753732 -17.491891 68.018201 -43.100032 36.466557 -158.128438 -0.534500 -4.684400 13.010700 -2.989438 5.161418 -3.084542 0.495348 6.481152 -4.707596 5.110011 3.189974 3.426424 -8.003127 -2.348362 -12.018725 5.243221 -5.627020 24.883496 1.431100 -3.270000 10.133400 0.702099 -4.317999 1.562080 -70.808867 18.809060 34.101505 17.599419 -29.492645 -5.708685 -0.280514 1.178833 7.778382 31.543444 -18.339588 -11.817000 -7.125000 0.000000 0.000000 2.327600 7.256200 -2.016700 0.802927 4.651849 1.814081 68.082551 -3.848074 16.813975 -20.346839 37.612947 -8.701792 1.380193 -0.985818 -0.021670 -17.886165 -43.715809 13.244600 7.125000 0.000000 0.000000 28.571400 -72.121000 -18.860100 
9.151292 17.510980 6.444815 -178.653967 10.748540 -162.454919 4.869118 2.368303 -0.471890 -26.083606 -11.365892 -27.415252 2.639814 11.140652 31.560496 0.926330 -0.886963 -18.142976 6.238700 -14.655800 -45.932400 -9.698194 -3.738802 -1.329669 20.569987 18.147520 -10.051225 -11.447324 -17.563272 67.153249 -42.619605 35.690522 -156.740266 -0.140400 -2.414600 6.653000 -2.450756 4.540498 -2.569695 0.672050 5.630623 -4.702737 5.021721 2.789603 3.362065 -7.883857 -2.302030 -11.759059 4.948570 -5.611651 24.996673 1.298400 -3.306000 10.096800 0.702266 -4.367070 1.588250 -69.253835 18.719365 34.820218 18.643205 -30.641857 -6.249568 -0.301306 1.184248 7.244157 32.243107 -18.945721 -12.491000 -7.125000 0.000000 0.000000 2.683000 6.402900 -2.369700 0.819429 4.726928 1.840872 68.639507 -6.176223 12.592397 -19.291838 36.592163 -8.361047 1.281384 -1.033319 0.277041 -19.836003 -43.184150 14.420000 7.125000 0.000000 0.000000 25.169000 -72.269300 -16.607000 
9.095032 17.500907 6.318793 -179.150829 9.300797 -162.941869 4.855716 2.341041 -0.549321 -27.384364 -11.265917 -26.040989 2.556985 10.847710 30.860078 0.949131 -2.561630 -17.990035 4.546900 -12.854600 -38.826600 -9.759642 -3.661329 -1.130053 20.091380 19.473034 -12.872772 -11.306434 -17.831171 66.898734 -42.590256 36.075750 -156.189387 -0.054900 -1.512000 4.158800 -1.947253 3.891777 -2.110229 0.883783 4.756971 -4.704091 5.055284 2.374967 3.312379 -7.695523 -2.256486 -11.798379 4.445162 -5.561336 25.383649 1.061900 -3.339000 10.236700 0.715158 -4.402366 1.604157 -67.940342 18.325405 35.114217 19.536867 -31.580791 -6.714144 -0.323408 1.168852 7.022284 32.413959 -18.494646 -12.305800 -7.125000 0.000000 0.000000 2.872400 6.894100 -2.510000 0.844478 4.821441 1.870593 69.187177 -8.335315 7.770736 -17.926578 35.164392 -7.858338 1.164318 -1.092921 1.938189 -21.210923 -42.286461 15.081200 7.125000 0.000000 0.000000 21.897500 -71.915400 -14.218100 
9.049703 17.486011 6.211631 -179.774497 8.200173 -163.378033 4.862992 2.322359 -0.625937 -28.499654 -11.285980 -24.911824 2.516912 10.683246 30.508353 0.911377 -2.892199 -17.538928 5.278900 -13.691200 -42.014100 -9.846349 -3.560763 -0.901519 19.179241 21.307001 -16.110575 -11.455308 -18.246597 67.434726 -42.262501 33.884181 -156.497256 -0.033700 1.184800 -3.257300 -1.866251 3.178558 -1.755313 1.103160 3.837829 -4.689527 5.336445 1.918699 3.334749 -7.613160 -2.113714 -11.767976 4.042991 -5.362147 25.663632 0.889300 -3.302800 10.309000 0.725529 -4.440493 1.625245 -66.877131 17.630410 34.848448 20.208064 -32.274603 -7.092526 -0.355322 1.158835 6.544491 32.783073 -18.155244 -12.278300 -7.125000 0.000000 0.000000 3.172400 7.206000 -2.753700 0.881258 4.901391 1.907290 69.691794 -10.280367 3.163697 -16.419749 33.561138 -7.340089 1.031625 -1.102860 3.848352 -21.966247 -44.048700 16.073600 7.125000 0.000000 0.000000 24.343200 -73.683100 -16.775200 
